<svg width="172" height="181" viewBox="0 0 172 181" fill="none" xmlns="http://www.w3.org/2000/svg">
<ellipse cx="86" cy="90.4999" rx="84" ry="88.5" transform="rotate(0.779579 86 90.4999)" fill="#ED9400"/>
<path d="M102.571 56.4122C97.613 42.2179 86.5951 32.5504 73.9008 32.0862C55.7368 31.422 40.3576 49.4987 39.618 72.382C39.417 78.6009 40.2781 84.6001 42.1782 90.2337L38.4686 109.63C37.9964 112.099 39.6545 114.357 41.6307 113.937L57.3441 110.603C59.402 111.941 61.5421 112.98 63.7516 113.722C59.721 83.5306 78.5838 56.019 102.571 56.4122V56.4122Z" fill="white"/>
<path d="M130.687 123.851C131.271 122.433 131.786 120.986 132.234 119.512L132.132 119.508C139.983 93.6992 126.129 65.7655 104.413 63.6359C104.413 63.6345 104.413 63.633 104.412 63.6316C85.7254 61.8538 69.5566 80.2785 68.7954 103.83C68.0564 126.693 82.1208 145.831 100.158 146.524C105.051 146.695 109.784 145.532 114.242 143.063C131.174 147.963 129.853 147.611 130.245 147.625C132.019 147.69 133.411 145.679 133.135 143.471L130.687 123.851Z" fill="white"/>
</svg>
