<svg width="77" height="92" viewBox="0 0 77 92" fill="none" xmlns="http://www.w3.org/2000/svg">
<path d="M8.88462 92H68.1154C73.0146 92 77 88.3728 77 83.9141V26.9531H56.2692C51.3701 26.9531 47.3846 23.326 47.3846 18.8672V0H8.88462C3.98544 0 0 3.62717 0 8.08594V83.9141C0 88.3728 3.98544 92 8.88462 92ZM20.7308 37.9141H56.2692C57.9062 37.9141 59.2308 39.1196 59.2308 40.6094C59.2308 42.0992 57.9062 43.3047 56.2692 43.3047H20.7308C19.0938 43.3047 17.7692 42.0992 17.7692 40.6094C17.7692 39.1196 19.0938 37.9141 20.7308 37.9141ZM20.7308 48.6953H56.2692C57.9062 48.6953 59.2308 49.9008 59.2308 51.3906C59.2308 52.8804 57.9062 54.0859 56.2692 54.0859H20.7308C19.0938 54.0859 17.7692 52.8804 17.7692 51.3906C17.7692 49.9008 19.0938 48.6953 20.7308 48.6953ZM20.7308 59.4766H56.2692C57.9062 59.4766 59.2308 60.6821 59.2308 62.1719C59.2308 63.6617 57.9062 64.8672 56.2692 64.8672H20.7308C19.0938 64.8672 17.7692 63.6617 17.7692 62.1719C17.7692 60.6821 19.0938 59.4766 20.7308 59.4766ZM20.7308 70.2578H44.4231C46.06 70.2578 47.3846 71.4633 47.3846 72.9531C47.3846 74.4429 46.06 75.6484 44.4231 75.6484H20.7308C19.0938 75.6484 17.7692 74.4429 17.7692 72.9531C17.7692 71.4633 19.0938 70.2578 20.7308 70.2578Z" fill="white"/>
</svg>
